<?xml version="1.0" standalone="no"?>
<!DOCTYPE svg PUBLIC "-//W3C//DTD SVG 20010904//EN"
 "http://www.w3.org/TR/2001/REC-SVG-20010904/DTD/svg10.dtd">
<svg version="1.0" xmlns="http://www.w3.org/2000/svg"
 width="640.000000pt" height="640.000000pt" viewBox="0 0 640.000000 640.000000"
 preserveAspectRatio="xMidYMid meet">

<g transform="translate(0.000000,640.000000) scale(0.100000,-0.100000)"
fill="#000000" stroke="none">
<path d="M4702 5372 c-20 -13 20 -44 44 -35 16 6 17 4 6 -9 -10 -12 -10 -18 2
-27 11 -9 15 -9 18 0 3 8 9 9 17 5 11 -7 11 -10 0 -17 -16 -9 -12 -14 19 -23
16 -6 22 -3 22 8 0 28 20 17 26 -13 5 -25 30 -49 40 -38 7 7 -9 46 -17 42 -4
-3 -11 10 -15 30 -6 32 -24 50 -24 24 0 -6 -8 -18 -17 -27 -16 -16 -16 -16
-10 1 12 31 -31 73 -70 71 -18 -1 -30 2 -27 7 6 11 3 11 -14 1z"/>
<path d="M4880 5299 c0 -10 4 -19 9 -19 5 0 15 -20 23 -45 8 -24 11 -42 7 -39
-5 3 -6 -2 -3 -11 4 -9 9 -13 12 -10 8 8 32 -32 29 -47 -2 -7 -2 -10 0 -6 3 4
10 3 16 -3 7 -5 21 -16 32 -24 11 -7 17 -17 13 -21 -4 -4 -15 -1 -23 6 -13 11
-18 10 -30 -6 -8 -10 -15 -22 -15 -26 0 -13 -50 18 -56 35 -8 26 -27 21 -20
-5 3 -13 8 -34 11 -48 5 -23 5 -24 -7 -6 -7 11 -23 30 -35 43 -13 13 -23 27
-23 31 0 8 -37 42 -45 42 -3 0 -1 -9 5 -19 14 -28 13 -31 -12 -31 -22 -1 -23
-1 -4 -15 11 -8 18 -15 15 -16 -35 -7 -51 -3 -60 13 -8 15 -14 17 -24 8 -10
-9 -15 -4 -20 22 -4 18 -14 41 -23 51 -8 9 -13 20 -10 23 4 3 -14 24 -39 47
-36 33 -51 41 -77 38 -30 -2 -30 -2 -11 14 19 16 18 16 -21 11 -23 -3 -53 -12
-66 -19 l-25 -13 25 -19 c22 -16 25 -16 19 -2 -3 9 -2 19 4 22 5 4 8 1 7 -7
-2 -9 12 -14 49 -16 47 -3 52 -6 62 -33 6 -16 8 -43 4 -59 -5 -29 11 -43 20
-17 2 6 8 9 12 5 4 -4 3 -20 -3 -36 -6 -17 -6 -35 -1 -43 13 -21 11 -46 -5
-52 -10 -4 -13 -1 -10 8 7 18 -18 56 -57 84 -41 31 -47 20 -15 -29 14 -22 23
-40 19 -40 -5 0 -1 -5 7 -10 9 -6 10 -10 3 -10 -6 0 -18 6 -25 13 -7 8 -19 12
-27 9 -9 -3 -11 0 -6 8 5 8 4 11 -3 6 -6 -4 -9 -13 -6 -21 4 -8 11 -12 17 -8
6 3 7 1 3 -6 -4 -6 -12 -9 -17 -6 -5 4 -9 1 -9 -4 0 -6 -4 -11 -10 -11 -5 0
-10 5 -10 10 0 11 -60 69 -72 70 -3 0 -8 -8 -11 -17 -4 -22 23 -73 40 -73 16
0 23 -13 14 -28 -10 -16 -41 -5 -41 14 0 8 -4 14 -10 14 -14 0 -13 -23 2 -38
6 -6 9 -14 6 -17 -3 -4 -14 2 -24 13 -22 22 -54 35 -54 22 0 -5 5 -12 10 -15
6 -3 10 -11 10 -16 0 -13 -28 2 -63 35 -27 25 -65 37 -52 16 3 -5 1 -10 -4
-10 -6 0 -11 5 -11 12 0 6 -3 9 -6 5 -3 -3 -16 5 -29 19 -29 31 -32 30 -29 -6
1 -19 -3 -30 -11 -30 -7 0 -15 -3 -18 -7 -2 -5 -2 -3 -1 4 2 7 -2 15 -9 19 -7
4 -9 4 -5 -1 5 -5 -1 -15 -13 -23 -11 -8 -18 -20 -15 -29 3 -8 2 -12 -2 -10
-4 3 -18 1 -31 -4 -18 -7 -22 -15 -19 -34 3 -14 1 -25 -5 -25 -5 0 -4 -6 3
-14 9 -12 7 -17 -9 -28 -12 -7 -21 -20 -21 -29 0 -9 -7 -22 -16 -30 -14 -11
-14 -13 1 -22 22 -12 28 -4 27 34 -1 55 20 16 23 -42 2 -28 0 -47 -4 -40 -8
13 -68 4 -77 -11 -9 -14 -10 -97 -1 -91 4 2 7 -1 7 -7 0 -7 -9 -14 -20 -17
-11 -3 -20 -11 -20 -19 0 -20 37 -3 101 45 30 23 60 39 66 36 7 -2 12 1 10 8
-1 6 25 21 58 32 33 11 63 23 66 28 10 13 54 3 61 -14 5 -13 27 -19 90 -24 46
-4 92 -14 103 -21 11 -8 37 -14 58 -14 39 0 132 -26 154 -42 7 -6 29 -7 50 -3
57 9 108 6 133 -10 6 -4 17 -1 25 5 18 15 35 5 35 -20 0 -16 6 -18 33 -13 22
3 47 -3 83 -21 29 -14 62 -26 73 -26 12 0 35 -10 50 -21 16 -12 35 -19 42 -17
7 2 21 -4 31 -14 10 -10 27 -18 38 -18 11 0 20 -4 20 -10 0 -5 5 -10 12 -10 6
0 20 -7 29 -16 17 -16 67 -25 149 -28 33 -1 35 1 36 31 0 18 3 36 7 39 8 8 10
-8 7 -44 -1 -12 5 -25 13 -28 8 -3 17 -14 20 -25 3 -13 14 -19 32 -19 20 0 26
-4 22 -14 -4 -9 2 -17 14 -21 10 -4 19 -13 19 -20 0 -13 22 -64 52 -119 7 -13
6 -16 -2 -11 -9 5 -9 2 -1 -14 29 -56 30 -60 21 -63 -6 -2 -6 -15 -2 -33 5
-16 4 -50 -1 -73 -6 -31 -6 -47 3 -55 9 -9 10 -5 4 17 -6 25 -5 28 10 23 12
-5 25 1 38 15 l20 23 -5 -22 c-6 -25 10 -32 19 -8 4 8 10 13 15 10 9 -6 33 34
25 43 -3 3 -6 0 -6 -6 0 -7 -10 -12 -22 -12 -20 0 -20 1 -5 13 22 16 31 67 11
67 -16 0 -16 6 -5 35 5 11 4 28 -1 38 -5 11 -7 41 -3 70 7 46 9 49 21 32 12
-16 14 -16 14 -3 0 9 -4 20 -10 23 -5 3 -10 11 -10 16 0 6 5 7 10 4 7 -4 8 3
4 21 -5 19 -4 25 5 20 18 -12 15 109 -4 124 -17 14 -21 45 -5 35 6 -3 10 -1
10 5 0 7 -9 14 -21 17 -16 4 -20 12 -16 29 2 13 0 24 -5 24 -6 0 -8 6 -5 14 3
7 -1 23 -9 35 -10 13 -11 21 -4 21 7 0 5 6 -4 15 -8 8 -18 15 -21 15 -4 0 -5
-7 -1 -15 3 -8 1 -15 -3 -15 -5 0 -12 6 -14 13 -3 7 -6 4 -6 -6 -2 -36 -21 -5
-21 33 l0 39 -36 -6 -36 -6 6 38 c4 20 9 42 13 48 4 7 0 8 -12 3 -14 -5 -16
-4 -6 8 11 13 5 46 -9 46 -4 0 -5 11 -3 24 3 13 0 27 -6 30 -7 5 -11 -6 -11
-31 0 -21 -5 -45 -11 -53 -8 -11 -9 -5 -5 25 4 35 3 38 -8 23 -16 -22 -36 -23
-36 -2 0 9 5 12 12 8 8 -5 9 2 4 27 -5 19 -8 40 -9 47 -1 17 -14 15 -21 -3 -3
-8 -1 -15 5 -15 5 0 4 -6 -3 -14 -7 -8 -16 -12 -19 -10 -7 4 -19 -47 -19 -83
0 -13 -4 -22 -10 -18 -5 3 -7 12 -4 19 3 8 1 17 -5 21 -6 3 -11 15 -11 25 0
10 -4 22 -10 25 -6 4 -7 -6 -3 -27 5 -28 4 -31 -8 -21 -15 12 -18 50 -5 71 7
12 6 13 -12 16 -19 3 -42 37 -43 63 -1 28 -1 28 -14 -7 l-13 -35 -2 40 c-1 22
-4 32 -7 23 -6 -22 -17 -23 -37 -2 -9 8 -16 12 -16 7 -1 -11 -39 70 -40 83 0
6 -8 20 -17 32 -10 12 -36 46 -57 76 -38 54 -59 65 -49 26 3 -11 12 -20 20
-20 8 0 11 -5 8 -10 -7 -11 11 -45 37 -71 19 -19 30 -49 18 -49 -11 0 -50 40
-50 52 0 4 -7 8 -15 8 -8 0 -15 5 -15 11 0 5 -4 8 -10 4 -5 -3 -7 -12 -4 -19
3 -8 0 -17 -6 -21 -12 -8 -100 24 -100 36 0 5 -3 8 -8 7 -4 -2 -18 7 -32 20
-25 24 -17 32 9 8 22 -20 91 -25 91 -8 0 12 -46 32 -73 32 -21 1 -21 2 -4 14
17 13 16 14 -3 19 -11 3 -20 10 -20 15 0 6 9 8 20 5 21 -5 25 3 12 24 -4 6
-33 22 -64 36 -55 25 -58 25 -58 6z m-270 -139 c0 -5 -4 -10 -10 -10 -5 0 -10
5 -10 10 0 6 5 10 10 10 6 0 10 -4 10 -10z m530 -85 c0 -8 -7 -15 -15 -15 -16
0 -20 12 -8 23 11 12 23 8 23 -8z m-37 -22 c26 -14 29 -18 13 -21 -10 -2 -23
1 -29 7 -6 6 -19 11 -30 11 -10 0 -15 5 -12 10 9 14 21 13 58 -7z m-308 -23
c-3 -5 -10 -10 -16 -10 -5 0 -9 5 -9 10 0 6 7 10 16 10 8 0 12 -4 9 -10z m722
-287 c-2 -16 -4 -5 -4 22 0 28 2 40 4 28 2 -13 2 -35 0 -50z m-60 -65 c-3 -7
-5 -2 -5 12 0 14 2 19 5 13 2 -7 2 -19 0 -25z m253 -118 c24 -24 21 -25 -14
-7 -14 8 -23 17 -19 20 9 10 11 9 33 -13z m-150 -26 c0 -8 -4 -12 -10 -9 -5 3
-10 13 -10 21 0 8 5 12 10 9 6 -3 10 -13 10 -21z m-54 -30 c-3 -9 -6 -30 -6
-47 0 -20 -3 -28 -10 -21 -12 12 -1 84 12 84 6 0 7 -7 4 -16z m81 -16 c-3 -7
-5 -2 -5 12 0 14 2 19 5 13 2 -7 2 -19 0 -25z m199 -36 c-9 -8 -13 0 -20 38
l-6 35 16 -34 c8 -18 13 -36 10 -39z m-46 38 c0 -5 -2 -10 -4 -10 -3 0 -8 5
-11 10 -3 6 -1 10 4 10 6 0 11 -4 11 -10z m-200 -26 c0 -8 -4 -12 -10 -9 -5 3
-10 10 -10 16 0 5 5 9 10 9 6 0 10 -7 10 -16z m80 -14 c0 -5 -5 -10 -11 -10
-5 0 -7 5 -4 10 3 6 8 10 11 10 2 0 4 -4 4 -10z m120 -304 c0 -3 -4 -8 -10
-11 -5 -3 -10 -1 -10 4 0 6 5 11 10 11 6 0 10 -2 10 -4z m10 -76 c0 -22 -4
-40 -9 -40 -4 0 -7 10 -6 23 1 12 3 30 4 40 2 34 11 16 11 -23z m27 -22 c-3
-8 -6 -5 -6 6 -1 11 2 17 5 13 3 -3 4 -12 1 -19z"/>
<path d="M5103 5249 c6 -10 16 -15 21 -12 6 4 5 8 -2 11 -7 2 -10 7 -8 11 3 4
-1 8 -8 8 -11 0 -12 -4 -3 -18z"/>
<path d="M5036 5220 c19 -32 40 -45 49 -30 6 10 -40 60 -56 60 -6 0 -2 -13 7
-30z"/>
<path d="M4470 5209 c0 -5 5 -7 10 -4 6 3 10 8 10 11 0 2 -4 4 -10 4 -5 0 -10
-5 -10 -11z"/>
<path d="M4513 5190 c-13 -20 -8 -50 8 -50 5 0 9 10 9 21 0 18 2 19 15 9 18
-15 19 -1 1 23 -17 21 -18 21 -33 -3z"/>
<path d="M4884 5183 c2 -9 8 -19 15 -21 10 -3 10 0 2 17 -14 25 -20 27 -17 4z"/>
<path d="M5103 5155 c-3 -9 -3 -18 -1 -21 3 -3 8 4 11 16 6 23 -1 27 -10 5z"/>
<path d="M4840 5148 c0 -9 5 -20 11 -23 17 -11 18 -2 3 19 -12 17 -14 17 -14
4z"/>
<path d="M4301 5119 c0 -13 4 -33 9 -44 7 -14 8 -8 3 20 -7 46 -13 59 -12 24z"/>
<path d="M4415 5120 c-3 -5 -1 -10 4 -10 6 0 11 5 11 10 0 6 -2 10 -4 10 -3 0
-8 -4 -11 -10z"/>
<path d="M4526 5115 c4 -8 8 -15 10 -15 2 0 4 7 4 15 0 8 -4 15 -10 15 -5 0
-7 -7 -4 -15z"/>
<path d="M5045 5120 c3 -5 11 -10 16 -10 6 0 7 5 4 10 -3 6 -11 10 -16 10 -6
0 -7 -4 -4 -10z"/>
<path d="M4343 5065 c-6 -7 -8 -18 -3 -26 12 -18 23 -6 18 19 -2 16 -5 17 -15
7z"/>
<path d="M4110 5039 c0 -5 5 -7 10 -4 6 3 10 8 10 11 0 2 -4 4 -10 4 -5 0 -10
-5 -10 -11z"/>
<path d="M5871 4893 c-1 -7 -8 -13 -17 -13 -12 0 -14 -7 -9 -30 5 -22 3 -32
-9 -36 -18 -7 -22 -34 -5 -34 7 0 10 -15 7 -39 -2 -28 0 -37 9 -34 7 3 13 1
14 -3 4 -39 10 -113 10 -129 0 -20 0 -20 15 0 8 11 12 25 10 32 -3 7 -1 15 4
18 12 8 13 -47 1 -98 -5 -21 -5 -39 0 -43 16 -10 10 -23 -13 -27 l-23 -4 23
-2 c12 0 22 -6 22 -12 0 -6 -7 -9 -15 -6 -12 5 -12 2 -3 -18 14 -31 18 -31 54
-3 26 21 27 21 20 3 -4 -11 -10 -36 -12 -55 -3 -19 -11 -41 -19 -50 -10 -11
-11 -20 -4 -33 7 -11 7 -17 0 -17 -6 0 -8 -12 -5 -29 4 -17 -1 -43 -11 -64 -9
-20 -15 -42 -12 -49 3 -7 6 -2 6 11 1 18 4 22 11 15 8 -8 6 -24 -4 -55 -18
-51 -20 -73 -6 -64 6 3 10 14 10 24 0 10 14 38 32 61 18 26 26 46 20 48 -15 5
-3 64 15 75 11 7 11 11 -2 23 -16 16 -21 59 -6 50 5 -3 11 3 14 13 3 14 1 18
-9 14 -8 -3 -14 0 -14 6 0 6 7 11 15 11 19 0 20 50 3 69 -11 11 -10 12 1 6 11
-6 13 -4 8 8 -3 9 -2 19 2 22 5 3 5 23 0 46 -5 22 -7 44 -4 49 7 11 -17 90
-27 90 -5 0 -8 18 -8 40 0 22 -4 40 -10 40 -5 0 -10 -10 -10 -22 0 -42 -10
-10 -14 43 -2 34 -8 53 -15 52 -6 -2 -10 0 -10 5 3 20 -2 32 -12 26 -8 -5 -10
1 -6 17 3 13 1 33 -3 44 -5 11 -9 14 -9 8z"/>
<path d="M5822 4870 c0 -14 2 -19 5 -12 2 6 2 18 0 25 -3 6 -5 1 -5 -13z"/>
<path d="M5651 4795 c0 -5 3 -16 8 -24 5 -8 6 -24 1 -37 -7 -18 -5 -23 13 -29
12 -4 25 -7 30 -6 4 1 7 -3 7 -9 0 -5 5 -10 11 -10 6 0 9 7 5 15 -3 8 -1 15 4
15 5 0 10 -8 13 -17 2 -10 4 1 3 25 0 23 -3 42 -7 42 -4 0 -14 3 -22 6 -12 4
-15 -1 -12 -23 4 -35 -3 -46 -19 -31 -6 6 -11 29 -10 51 1 23 -1 35 -6 27 -6
-10 -9 -9 -13 1 -3 8 -6 10 -6 4z"/>
<path d="M5690 4796 c0 -2 7 -6 15 -10 8 -3 15 -1 15 4 0 6 -7 10 -15 10 -8 0
-15 -2 -15 -4z"/>
<path d="M5648 4688 c5 -5 16 -8 23 -6 8 3 3 7 -10 11 -17 4 -21 3 -13 -5z"/>
<path d="M5715 4660 c-3 -5 1 -10 9 -10 9 0 16 5 16 10 0 6 -4 10 -9 10 -6 0
-13 -4 -16 -10z"/>
<path d="M5750 4666 c0 -2 7 -7 16 -10 8 -3 12 -2 9 4 -6 10 -25 14 -25 6z"/>
<path d="M5932 4365 c0 -16 2 -22 5 -12 2 9 2 23 0 30 -3 6 -5 -1 -5 -18z"/>
<path d="M5905 4269 c-4 -6 -5 -12 -2 -15 2 -3 7 2 10 11 7 17 1 20 -8 4z"/>
<path d="M5877 3974 c-13 -18 -14 -22 -3 -18 8 3 17 13 20 21 10 25 3 23 -17
-3z"/>
<path d="M3953 3906 c10 -10 16 -25 13 -33 -3 -8 -1 -11 4 -8 6 3 23 -2 40
-12 30 -17 39 -33 20 -33 -5 0 -10 5 -10 12 0 6 -3 8 -7 5 -3 -4 -12 -2 -20 4
-27 23 -12 -3 22 -35 35 -35 95 -63 95 -45 0 5 -6 9 -14 9 -22 0 -41 30 -41
68 -1 22 -7 38 -16 40 -8 3 -17 10 -21 15 -3 6 -15 11 -25 13 -10 1 -27 5 -38
10 -19 8 -19 7 -2 -10z"/>
<path d="M5727 3893 c-4 -3 -7 -13 -7 -22 1 -13 3 -13 11 2 11 19 8 33 -4 20z"/>
<path d="M3800 3811 c-34 -6 -41 -9 -27 -15 10 -5 38 -6 63 -2 46 6 84 -6 84
-26 0 -6 8 -17 18 -24 9 -7 12 -14 5 -14 -6 0 -15 5 -18 10 -12 19 -25 -1 -25
-36 0 -24 8 -43 25 -59 38 -39 84 -30 130 23 l22 25 15 -45 c16 -45 16 -45 -7
-40 -12 2 -26 -1 -29 -7 -7 -11 61 -28 71 -18 3 4 6 18 6 32 0 18 4 25 13 21
25 -10 15 10 -33 61 -37 39 -65 58 -123 81 -87 35 -128 42 -190 33z"/>
<path d="M2460 3700 c0 -5 5 -10 11 -10 5 0 7 -4 4 -10 -3 -6 1 -7 9 -4 21 8
20 11 -4 24 -14 7 -20 7 -20 0z"/>
<path d="M2520 3670 c0 -4 -17 -12 -37 -17 -48 -11 -59 -36 -11 -26 18 4 44 7
58 8 14 0 27 3 30 7 3 4 19 -2 35 -12 17 -11 24 -20 17 -20 -9 0 -8 -7 4 -25
9 -14 21 -22 27 -18 6 4 8 0 4 -10 -4 -10 -9 -23 -12 -30 -9 -22 28 -14 55 11
13 12 32 22 42 22 9 0 22 9 28 20 8 15 8 20 -2 20 -6 0 -21 8 -32 19 -33 29
-206 73 -206 51z"/>
<path d="M2331 3644 c-36 -20 -40 -24 -20 -24 13 1 47 12 74 25 46 22 48 24
20 24 -16 0 -50 -11 -74 -25z"/>
<path d="M2398 3623 c7 -3 16 -2 19 1 4 3 -2 6 -13 5 -11 0 -14 -3 -6 -6z"/>
<path d="M2225 3590 c-3 -5 -1 -10 4 -10 6 0 11 5 11 10 0 6 -2 10 -4 10 -3 0
-8 -4 -11 -10z"/>
<path d="M3055 3540 c7 -11 45 -20 45 -10 0 4 -11 10 -25 12 -13 3 -22 2 -20
-2z"/>
<path d="M4730 3530 c-14 -26 -7 -50 15 -50 8 0 14 -5 13 -11 -5 -17 73 -40
144 -42 37 -1 68 -5 68 -10 0 -4 24 -5 53 -3 28 3 56 5 62 6 13 0 -56 63 -85
76 -94 44 -160 61 -160 43 0 -6 -6 -9 -14 -6 -8 3 -30 9 -49 12 -30 6 -37 3
-47 -15z"/>
<path d="M2996 3442 c-26 -48 -47 -74 -76 -92 -21 -13 -37 -26 -35 -28 2 -2
28 5 59 15 46 15 56 22 56 41 0 12 6 22 13 22 6 0 21 21 32 47 11 26 22 51 23
55 2 4 -5 8 -17 8 -15 0 -29 -18 -55 -68z"/>
<path d="M3537 3465 c-4 -22 -7 -72 -7 -111 0 -69 -2 -74 -46 -134 -25 -34
-43 -64 -40 -67 2 -3 -4 -25 -15 -51 -17 -38 -18 -48 -6 -59 11 -11 15 -10 24
9 97 200 96 198 101 308 5 119 0 167 -11 105z"/>
<path d="M4544 3453 c-21 -4 -36 -38 -49 -110 -4 -24 -2 -33 8 -33 8 0 19 -12
26 -27 15 -32 29 -21 35 27 3 19 5 37 6 40 0 3 9 -5 18 -16 22 -25 82 -59 82
-45 0 5 -7 17 -16 26 -24 24 -6 36 58 38 40 1 59 -2 72 -15 17 -17 16 -18 -3
-18 -32 0 -29 -63 4 -95 36 -37 84 -34 124 7 30 31 31 31 51 13 23 -21 26 -45
8 -64 -11 -11 -9 -13 11 -8 13 3 39 0 57 -8 37 -15 74 -10 74 11 0 7 -10 23
-23 36 -53 52 -88 74 -284 178 -29 15 -50 30 -47 32 3 3 -4 8 -16 11 -11 3
-23 1 -26 -4 -3 -5 -11 -9 -17 -9 -8 0 -8 3 1 9 32 20 -84 38 -154 24z m213
-79 c-3 -3 -12 -4 -19 -1 -8 3 -5 6 6 6 11 1 17 -2 13 -5z m272 -140 c3 -16 1
-17 -13 -5 -19 16 -21 34 -3 29 6 -3 14 -13 16 -24z"/>
<path d="M5110 3386 c0 -2 7 -6 15 -10 8 -3 15 -1 15 4 0 6 -7 10 -15 10 -8 0
-15 -2 -15 -4z"/>
<path d="M2703 3355 c-26 -18 -48 -75 -29 -75 17 0 77 70 70 81 -7 13 -16 11
-41 -6z"/>
<path d="M3197 3245 c-18 -25 -86 -50 -157 -59 -19 -3 -37 -5 -40 -6 -3 -1
-16 -2 -30 -1 -24 1 -24 1 5 -16 35 -20 48 -19 132 8 58 19 113 63 113 90 0
13 -3 11 -23 -16z"/>
<path d="M3353 3199 c-7 -7 -13 -19 -13 -26 0 -7 -8 -13 -17 -14 -33 -1 -54
-7 -78 -23 -21 -14 -61 -26 -93 -28 -23 -2 5 -20 29 -20 96 2 137 17 169 62
23 33 25 72 3 49z"/>
<path d="M4725 3168 c7 -17 67 -58 85 -58 9 0 7 5 -6 15 -16 13 -16 14 -1 9 9
-3 17 -1 17 5 0 11 -12 15 -41 12 -9 -1 -22 5 -29 14 -15 18 -31 20 -25 3z"/>
<path d="M5404 3032 c-6 -4 -16 -22 -22 -41 -16 -45 -1 -60 29 -30 16 16 17
21 6 16 -22 -8 -22 2 1 19 12 9 13 13 3 14 -7 0 -11 6 -7 15 6 17 5 18 -10 7z"/>
<path d="M3850 3023 c1 -8 70 -44 70 -36 0 2 -5 13 -10 24 -10 18 -60 28 -60
12z"/>
<path d="M4411 3013 c-6 -12 -13 -47 -17 -79 -3 -33 -15 -74 -25 -91 -18 -33
-18 -33 2 -33 14 0 25 12 36 38 31 75 36 223 4 165z"/>
<path d="M3820 2993 c0 -14 42 -50 68 -58 28 -8 30 14 2 38 -23 20 -70 33 -70
20z"/>
<path d="M5365 2899 c-4 -6 -5 -12 -2 -15 2 -3 7 2 10 11 7 17 1 20 -8 4z"/>
<path d="M4110 2880 c-8 -5 -28 -10 -43 -10 l-28 0 27 -25 c15 -14 32 -35 38
-47 8 -16 27 -25 71 -35 52 -10 65 -10 102 5 47 19 55 32 21 32 -24 1 -58 21
-58 35 0 4 -12 18 -27 31 -29 25 -76 31 -103 14z"/>
<path d="M3546 2744 c-16 -23 -16 -28 -4 -40 8 -8 29 -16 47 -19 18 -2 39 -9
47 -16 7 -6 31 -11 52 -11 32 1 50 -8 100 -49 33 -27 67 -49 74 -49 7 0 40
-11 73 -25 56 -23 60 -26 60 -57 0 -44 11 -58 44 -58 15 0 32 -5 38 -11 5 -5
22 -11 37 -13 36 -4 89 -44 82 -62 -3 -8 -1 -14 4 -14 6 0 10 -9 10 -21 0 -11
5 -17 10 -14 10 6 14 -8 5 -17 -3 -3 -23 -2 -45 2 -22 4 -40 3 -40 -1 0 -13
-34 -11 -48 3 -8 8 -15 8 -27 -2 -8 -7 -26 -10 -39 -8 -14 3 -36 -2 -50 -11
-24 -16 -24 -19 -11 -44 8 -15 15 -46 17 -70 2 -27 7 -41 16 -39 18 3 15 -12
-6 -31 -11 -10 -22 -13 -28 -8 -5 5 -26 14 -46 19 -29 8 -40 7 -49 -4 -16 -19
-65 -18 -73 2 -4 11 -10 13 -19 7 -17 -13 -107 -17 -107 -5 0 6 -22 13 -50 17
-27 4 -50 11 -50 16 0 5 -10 9 -22 9 -13 0 -39 14 -58 30 -19 16 -40 30 -45
30 -19 0 -74 141 -75 190 -1 28 -26 67 -36 57 -4 -4 -2 -12 3 -19 15 -18 0
-51 -32 -74 -24 -18 -47 -85 -28 -84 4 1 24 21 43 46 l35 44 8 -52 c4 -29 8
-63 10 -75 1 -12 9 -31 17 -41 8 -10 22 -30 30 -44 14 -24 201 -158 220 -158
8 0 20 -24 20 -41 0 -12 -73 -11 -157 1 -38 6 -89 13 -115 16 -42 5 -49 9 -53
32 -3 15 -17 50 -31 79 -26 51 -26 51 -67 47 -37 -3 -46 0 -71 26 -39 42 -52
38 -61 -17 -4 -26 -16 -64 -26 -85 -11 -21 -20 -49 -21 -63 -1 -13 -8 -27 -16
-30 -7 -3 -10 -9 -7 -15 3 -5 1 -46 -6 -90 -8 -57 -15 -80 -25 -80 -8 0 -17 7
-21 16 -5 15 5 108 23 202 5 25 2 37 -13 51 -19 18 -20 17 -52 -21 -25 -29
-36 -36 -46 -28 -10 8 -14 1 -19 -35 -4 -25 -12 -45 -18 -45 -6 0 -8 -11 -3
-27 l7 -28 -24 23 c-31 28 -59 31 -34 3 17 -19 17 -20 -18 -26 -38 -8 -48 -30
-18 -39 9 -3 -2 -4 -25 -2 -28 3 -46 -1 -54 -10 -17 -21 -29 -17 -29 10 0 18
-5 23 -17 21 -10 -2 -28 -4 -40 -4 -13 -1 -23 -7 -23 -16 0 -10 -10 -15 -29
-15 -27 0 -28 2 -25 43 2 34 0 39 -9 26 -15 -19 -83 -34 -92 -19 -11 17 -23
11 -18 -9 4 -17 -10 -27 -52 -35 -26 -5 -95 -45 -107 -61 -5 -7 -8 -6 -8 0 0
6 -9 11 -20 12 -11 1 -20 -3 -20 -8 0 -6 -6 -7 -17 -1 -11 7 -32 5 -62 -4 -53
-16 -91 -18 -91 -5 0 5 17 15 38 21 20 7 41 16 47 21 5 5 16 9 24 9 8 0 41 10
74 23 47 18 57 25 53 41 -3 12 7 34 25 58 25 31 28 38 13 38 -11 0 2 18 41 55
31 30 52 55 46 55 -6 0 -11 5 -11 10 0 6 9 10 19 10 12 0 26 13 35 32 20 39
20 42 -1 34 -9 -4 -19 -2 -22 3 -9 14 -61 -13 -106 -55 -21 -19 -43 -34 -49
-34 -6 0 -31 -18 -56 -40 -97 -84 -116 -101 -140 -120 -14 -11 -40 -35 -57
-52 -23 -21 -33 -26 -33 -16 0 9 17 31 38 50 21 19 49 49 62 68 l24 33 -22 -5
c-12 -4 -24 -3 -27 2 -5 7 5 14 30 20 6 1 19 9 30 16 11 8 26 14 35 14 22 0
124 79 203 156 65 64 78 84 57 84 -5 0 -10 -8 -10 -17 0 -12 -3 -14 -11 -6 -7
7 -22 5 -52 -10 -70 -33 -127 -57 -251 -103 -66 -25 -169 -68 -229 -96 -80
-37 -112 -47 -120 -39 -8 8 -6 15 9 26 10 8 25 15 32 15 8 0 26 8 40 18 38 25
114 56 203 83 77 23 77 23 62 46 -14 22 -14 23 7 23 13 0 24 8 27 20 3 11 8
20 12 20 3 0 15 7 25 15 18 14 18 15 -7 49 -26 34 -27 34 -64 21 -44 -16 -108
-48 -128 -65 -8 -7 -15 -9 -15 -6 0 4 -6 1 -14 -6 -8 -7 -31 -24 -51 -38 -20
-14 -58 -42 -84 -62 -27 -21 -53 -38 -57 -38 -10 0 132 137 179 173 15 12 37
30 49 39 11 10 42 32 69 49 27 17 49 35 49 41 0 5 6 8 13 5 6 -2 27 5 45 15
38 21 55 22 82 6 14 -9 23 -10 28 -3 4 6 45 11 92 11 141 2 224 22 233 54 3
11 1 20 -4 20 -5 0 -9 -5 -9 -11 0 -5 -5 -7 -12 -3 -14 9 -168 12 -173 3 -2
-3 -25 -6 -51 -8 -26 -1 -55 -6 -63 -11 -9 -4 -29 -6 -45 -3 -22 5 -27 3 -21
-7 6 -10 1 -12 -19 -8 -14 3 -26 1 -26 -4 0 -6 -11 -7 -26 -4 -14 4 -31 3 -37
-2 -7 -4 -37 -16 -67 -27 -30 -10 -83 -34 -117 -52 -35 -19 -63 -32 -63 -30 0
9 153 95 208 118 29 12 51 23 49 25 -12 13 -180 -60 -253 -110 -45 -31 -60
-24 -21 9 27 24 35 45 18 45 -6 0 -16 -9 -24 -20 -8 -11 -17 -17 -20 -14 -7 8
48 82 75 102 23 16 24 52 2 52 -9 0 -26 -9 -38 -19 -51 -47 -96 -83 -96 -77 0
3 9 20 20 38 11 18 20 41 20 50 0 10 14 33 31 53 18 20 29 38 26 42 -4 3 -45
-22 -92 -56 -46 -33 -84 -57 -84 -53 4 21 -2 42 -12 42 -5 0 -8 -4 -5 -9 12
-18 -32 -18 -45 0 -16 23 -31 5 -22 -28 3 -16 1 -23 -9 -23 -16 0 -37 24 -74
81 -14 22 -28 39 -30 36 -3 -3 8 -37 25 -77 35 -81 38 -98 16 -80 -8 7 -15 18
-15 25 0 17 -37 62 -44 54 -3 -3 3 -15 15 -27 11 -12 17 -26 14 -31 -3 -5 -1
-12 5 -16 5 -3 10 -13 10 -22 0 -16 -69 53 -70 70 0 5 -7 15 -15 24 -29 29
-33 7 -9 -52 13 -33 26 -70 29 -82 2 -12 6 -27 10 -33 3 -5 1 -10 -4 -10 -6 0
-11 7 -11 15 0 19 -58 85 -76 85 -8 0 -14 5 -14 10 0 6 -9 10 -20 10 -25 0
-25 -4 4 -76 13 -32 22 -62 20 -66 -7 -12 -34 3 -34 18 0 8 -7 17 -15 20 -8 4
-15 15 -15 25 0 10 -7 19 -15 19 -13 0 -15 -7 -9 -35 3 -19 3 -42 0 -52 -5
-13 -10 -10 -25 18 -10 19 -28 38 -39 44 -12 5 -22 13 -22 17 0 5 -7 8 -15 8
-8 0 -14 -3 -14 -7 6 -37 -12 -42 -41 -13 -12 12 -25 18 -30 15 -5 -3 -11 -1
-15 5 -3 5 -17 10 -29 10 -19 0 -23 5 -21 25 3 25 -8 34 -20 15 -3 -5 -13 -6
-21 -3 -9 3 -20 0 -24 -8 -7 -11 -12 -10 -27 3 -10 8 -23 13 -30 11 -19 -7
-53 16 -53 35 0 9 -10 23 -21 31 -19 11 -21 11 -15 -4 3 -9 0 -26 -6 -38 -7
-12 -11 -25 -10 -29 4 -14 -19 -8 -24 6 -3 8 -19 20 -35 26 -16 7 -26 16 -23
21 3 5 -4 9 -15 9 -10 0 -21 4 -23 8 -1 4 -20 17 -40 29 l-37 22 2 -22 c1 -12
7 -26 13 -32 24 -19 44 -125 24 -125 -5 0 -10 6 -10 14 0 7 -11 30 -25 50 -13
20 -21 36 -17 36 4 0 1 4 -6 9 -7 4 -14 18 -15 29 -2 27 -27 29 -27 2 0 -10
23 -62 50 -115 28 -53 50 -102 50 -110 0 -8 4 -15 8 -15 9 0 34 -71 28 -77 -2
-2 -38 66 -81 152 -42 85 -81 158 -86 161 -5 3 -32 -13 -61 -34 -75 -56 -152
-92 -206 -97 -76 -7 -166 -14 -184 -15 -17 0 -18 -31 -18 -510 l0 -510 25 -6
c14 -3 32 -3 41 0 9 3 74 -5 145 -19 90 -17 163 -25 242 -25 61 0 146 -5 187
-11 41 -5 134 -14 205 -19 120 -8 292 -34 303 -45 3 -3 -17 -53 -45 -112 -28
-60 -77 -171 -109 -248 -32 -77 -62 -142 -66 -143 -4 -2 -6 -8 -3 -13 4 -5 -7
-28 -23 -51 -16 -24 -30 -47 -31 -53 -2 -5 -9 -14 -17 -18 -8 -4 -14 -15 -14
-24 0 -10 -6 -13 -16 -9 -12 5 -15 2 -10 -9 3 -9 2 -13 -4 -10 -5 3 -18 -14
-29 -38 -38 -83 -65 -250 -43 -259 5 -1 12 -37 15 -78 4 -50 3 -68 -4 -55 -7
16 -8 14 -4 -10 16 -94 15 -114 -2 -124 -12 -7 735 -10 2349 -11 1662 0 2369
3 2373 11 4 6 13 8 20 5 7 -2 26 10 42 27 37 41 66 57 90 51 10 -3 28 3 40 13
12 10 30 24 41 32 11 8 23 22 25 32 3 9 15 19 28 21 16 2 25 11 27 26 2 13 10
26 18 29 18 7 18 23 -1 23 -8 0 -12 6 -9 14 7 18 -44 28 -70 14 -13 -7 -21 -7
-26 2 -4 7 -27 14 -51 16 -24 3 -45 9 -47 14 -2 6 -17 10 -32 10 -16 0 -32 5
-35 10 -4 6 -11 8 -16 4 -5 -3 -16 0 -24 6 -8 6 -23 9 -34 5 -10 -3 -22 -1
-26 5 -3 5 -20 10 -38 10 -29 0 -30 1 -11 15 10 8 27 15 37 15 10 0 17 8 17
20 0 13 7 20 20 20 11 0 20 5 20 10 0 6 -4 10 -10 10 -19 0 -10 16 20 33 17
10 30 16 30 13 0 -3 11 4 25 16 14 12 25 27 25 34 0 10 63 30 83 26 4 -1 7 2
7 8 0 5 -14 10 -32 10 -24 0 -29 3 -21 11 6 6 23 12 36 12 18 0 24 4 20 14 -3
8 0 19 8 25 10 7 9 8 -6 3 -39 -14 -99 -13 -122 2 -19 13 -26 13 -38 3 -13
-11 -18 -10 -28 3 -9 12 -16 14 -27 6 -11 -8 -12 -12 -2 -16 6 -2 12 -9 12
-15 0 -6 -6 -5 -16 2 -12 11 -18 10 -32 -3 -15 -16 -15 -17 3 -18 13 0 8 -5
-15 -13 -19 -8 -38 -11 -43 -9 -4 2 -10 -3 -13 -11 -9 -23 -23 -20 -17 4 3 11
9 20 14 20 4 0 16 8 26 18 10 10 34 30 54 44 25 19 39 38 43 61 4 21 15 38 29
45 19 10 18 10 -10 5 -32 -5 -32 -5 -26 31 5 32 3 38 -16 43 -11 3 -21 12 -21
19 0 8 -7 14 -16 14 -11 0 -14 6 -9 21 6 19 4 21 -18 15 -14 -3 -29 -2 -32 4
-3 5 0 10 8 10 8 0 20 7 27 15 8 9 8 15 2 15 -6 0 -13 -6 -15 -13 -3 -6 -6 -7
-6 -2 -1 15 11 28 41 48 20 12 27 25 26 42 l-2 25 -23 -27 c-24 -28 -39 -24
-45 11 -2 15 3 20 23 20 14 1 33 9 43 19 21 21 27 22 20 3 -3 -8 0 -17 7 -22
7 -4 10 -3 6 4 -13 19 5 42 32 42 46 0 66 3 72 12 3 5 17 4 33 -2 21 -8 28 -7
32 5 4 8 10 12 15 9 6 -3 16 -1 23 6 8 6 29 10 47 9 35 -3 181 16 235 30 22 6
40 3 65 -10 37 -20 74 -25 64 -9 -3 5 -25 21 -48 35 -39 22 -47 23 -81 13 -34
-11 -40 -10 -51 6 -9 12 -20 16 -33 12 -11 -4 -23 -2 -27 4 -3 5 -15 10 -26
10 -11 0 -30 6 -42 14 -30 19 -107 28 -107 13 0 -8 -4 -7 -9 2 -5 7 -14 11
-20 7 -6 -4 -46 -9 -88 -11 -105 -5 -133 -11 -253 -54 -8 -2 -20 -5 -26 -6 -6
0 -18 -5 -25 -11 -8 -6 -33 -16 -56 -24 -24 -7 -43 -18 -43 -24 0 -7 -9 -12
-21 -13 -11 -1 -28 -11 -37 -21 -24 -27 -62 -13 -62 24 0 25 65 119 122 177
16 15 28 34 28 42 0 8 7 15 16 15 22 0 13 31 -11 40 -15 6 -33 0 -63 -21 -24
-16 -49 -29 -57 -29 -8 0 -15 -7 -15 -15 0 -13 -18 -20 -42 -16 -5 0 -8 -6 -8
-14 0 -8 -5 -15 -10 -15 -6 0 -23 -11 -37 -24 -14 -13 -41 -27 -60 -31 -19 -3
-33 -12 -33 -20 0 -8 -6 -15 -13 -15 -8 0 -22 -9 -32 -20 -12 -14 -22 -17 -28
-11 -7 7 -1 18 17 32 23 18 25 23 14 37 -8 9 -8 13 -2 9 7 -4 14 2 18 16 3 12
1 24 -4 25 -17 6 -11 22 8 23 14 0 14 2 -3 8 -11 5 -24 6 -29 3 -5 -3 -7 2 -3
11 3 10 4 17 2 17 -7 0 -75 -39 -114 -66 -20 -13 -39 -24 -44 -24 -4 0 -25
-11 -47 -25 -22 -14 -42 -25 -45 -25 -10 0 -5 55 10 110 8 30 15 67 15 83 0
15 5 27 10 27 6 0 10 9 10 20 0 11 5 20 11 20 6 0 8 8 4 19 -4 14 0 20 19 25
13 3 33 3 43 0 10 -4 4 7 -17 26 -23 22 -28 31 -15 27 21 -7 46 4 48 19 1 10
15 29 35 47 8 7 25 22 39 35 14 13 34 24 44 25 10 1 16 3 14 5 -6 6 72 72 86
72 9 1 7 6 -6 16 -11 8 -18 23 -17 32 2 9 -3 21 -10 26 -8 6 -20 26 -26 45
-11 31 -10 36 9 49 l21 15 -27 24 c-14 14 -29 22 -32 19 -4 -3 -13 3 -20 14
-19 27 -42 20 -111 -32 -68 -51 -136 -84 -189 -93 -42 -7 -55 -19 -30 -28 8
-3 6 -7 -5 -12 -22 -9 -51 1 -43 15 6 9 -8 14 -28 11 -5 -1 -6 3 -2 9 3 5 1
10 -6 10 -8 0 -9 3 0 13 6 8 37 20 68 27 67 15 152 52 135 58 -7 2 -28 -2 -48
-8 -20 -7 -39 -8 -43 -4 -3 5 -5 8 -3 7 2 -1 13 7 24 17 12 10 33 22 49 25 15
4 33 13 39 21 7 7 16 11 21 8 15 -9 42 25 36 46 -3 11 -1 23 4 26 5 3 9 10 9
16 0 14 -61 2 -71 -14 -6 -9 -11 -8 -23 1 -13 11 -16 11 -16 1 0 -8 -3 -10 -6
-7 -4 3 -16 2 -27 -4 -10 -6 -17 -7 -14 -2 6 10 -27 43 -42 43 -5 0 -11 10
-13 23 -2 17 -9 21 -30 19 -16 -1 -28 2 -28 8 0 5 -8 10 -18 10 -28 0 -48 30
-51 74 -2 36 -20 87 -21 59 0 -7 -4 -13 -10 -13 -5 0 -10 18 -10 39 0 45 -13
60 -30 34 -10 -16 -11 -15 -6 5 8 39 -46 84 -60 49 -9 -25 -44 -17 -64 16 -30
51 -57 73 -110 86 -28 7 -52 17 -56 22 -3 5 -14 9 -24 9 -14 0 -18 5 -14 18 4
12 0 10 -16 -7 l-21 -24 -27 25 c-15 14 -49 38 -75 53 -43 25 -52 26 -89 17
-51 -13 -79 -2 -71 29 5 19 4 20 -17 9 -17 -9 -24 -9 -30 0 -4 7 -13 2 -24
-16z m-2386 -379 c0 -8 -4 -15 -10 -15 -5 0 -10 7 -10 15 0 8 5 15 10 15 6 0
10 -7 10 -15z m2150 -360 c0 -8 -4 -15 -10 -15 -5 0 -7 7 -4 15 4 8 8 15 10
15 2 0 4 -7 4 -15z m-1360 -221 c-8 -8 -23 -20 -34 -26 -18 -9 -17 -7 4 15 27
28 51 37 30 11z m2390 -4 c0 -6 -11 -8 -27 -4 -40 10 -41 14 -5 14 18 0 32 -5
32 -10z m-1522 -61 c-2 -6 -8 -10 -13 -10 -5 0 -11 4 -13 10 -2 6 4 11 13 11
9 0 15 -5 13 -11z m-661 -5 c-3 -3 -12 -4 -19 -1 -8 3 -5 6 6 6 11 1 17 -2 13
-5z m863 -4 c0 -5 -9 -10 -21 -10 -11 0 -17 5 -14 10 3 6 13 10 21 10 8 0 14
-4 14 -10z m-778 -29 c7 -10 33 -41 58 -68 25 -28 53 -61 64 -74 10 -13 33
-39 50 -57 17 -18 24 -30 16 -26 -8 3 -59 55 -113 115 -83 91 -103 109 -128
109 -20 0 -29 -5 -29 -16 0 -8 -5 -12 -10 -9 -6 4 -17 1 -25 -5 -11 -9 -15 -9
-15 -1 0 6 -12 12 -27 13 -16 0 -6 4 22 8 43 6 38 7 -35 7 -47 0 -70 -2 -52
-4 17 -2 32 -9 32 -14 0 -9 -67 -5 -77 5 -3 3 -3 12 0 21 5 12 28 15 131 15
110 0 126 -2 138 -19z m-25 -36 c6 -14 7 -23 2 -19 -13 8 -31 44 -22 44 4 0
13 -11 20 -25z m-12 -146 c53 -62 93 -114 90 -117 -3 -3 -11 2 -18 10 -62 79
-172 198 -183 198 -18 0 -18 -16 0 -23 8 -3 20 -15 26 -26 9 -17 8 -20 -5 -15
-8 4 -15 10 -15 15 0 5 -7 9 -16 9 -8 0 -12 5 -9 10 3 6 -1 13 -11 17 -14 5
-13 8 7 19 13 7 27 13 31 14 4 0 50 -50 103 -111z m-315 31 c-8 -5 -24 -10
-35 -10 -12 0 -26 -5 -33 -12 -9 -9 -12 -9 -12 0 0 6 -7 9 -17 5 -13 -4 -15
-3 -8 5 11 11 43 19 90 20 23 1 26 -1 15 -8z m-136 -77 c19 -24 23 -25 91 -20
50 5 77 3 89 -6 13 -10 -2 -11 -79 -9 l-95 3 -25 37 c-14 20 -25 41 -24 47 0
5 6 2 12 -9 7 -10 21 -30 31 -43z m26 47 c8 -5 11 -10 5 -10 -5 0 -17 5 -25
10 -8 5 -10 10 -5 10 6 0 17 -5 25 -10z m374 -6 c5 -14 4 -15 -9 -4 -17 14
-19 20 -6 20 5 0 12 -7 15 -16z m-37 -40 c10 -14 31 -42 47 -62 l29 -37 -34
36 c-55 58 -79 89 -69 89 5 0 17 -12 27 -26z m1133 -54 c0 -5 -11 -10 -25 -10
-14 0 -25 5 -25 10 0 6 11 10 25 10 14 0 25 -4 25 -10z m-754 -22 c19 -21 19
-21 -1 -10 -26 14 -41 6 -117 -65 -10 -9 -18 -12 -18 -7 0 9 100 103 111 104
3 0 14 -10 25 -22z m687 15 c-7 -2 -19 -2 -25 0 -7 3 -2 5 12 5 14 0 19 -2 13
-5z m-838 -39 c-9 -7 -23 -10 -31 -7 -24 9 -15 20 17 20 28 0 30 -2 14 -13z
m-119 -36 l29 -33 -32 29 c-31 28 -38 36 -30 36 2 0 16 -15 33 -32z m-195 5
c13 -16 12 -17 -3 -4 -10 7 -18 15 -18 17 0 8 8 3 21 -13z m292 -58 c-3 -9 -8
-14 -10 -11 -3 3 -2 9 2 15 9 16 15 13 8 -4z m267 -14 c0 -5 -7 -12 -16 -15
-14 -5 -15 -4 -4 9 14 17 20 19 20 6z m35 -31 c10 -11 16 -20 13 -20 -3 0 -13
9 -23 20 -10 11 -16 20 -13 20 3 0 13 -9 23 -20z m115 -124 c0 -13 -49 34 -62
59 -6 11 5 5 25 -15 20 -19 37 -39 37 -44z m2285 25 c3 -5 1 -12 -5 -16 -5 -3
-10 -1 -10 5 0 7 -7 10 -15 6 -8 -3 -15 -1 -15 4 0 13 37 13 45 1z m-3216 -96
c0 -5 -4 -3 -9 5 -5 8 -9 22 -9 30 0 16 17 -16 18 -35z m3511 15 c0 -5 -5 -10
-11 -10 -5 0 -7 5 -4 10 3 6 8 10 11 10 2 0 4 -4 4 -10z m-2850 -41 c0 -6 -4
-7 -10 -4 -5 3 -10 11 -10 16 0 6 5 7 10 4 6 -3 10 -11 10 -16z m57 -56 c7
-10 23 -31 35 -48 l22 -30 -23 20 c-28 24 -65 75 -55 75 4 0 13 -8 21 -17z
m2218 -13 c-3 -5 -10 -10 -16 -10 -5 0 -9 5 -9 10 0 6 7 10 16 10 8 0 12 -4 9
-10z m585 -21 c0 -6 -4 -7 -10 -4 -5 3 -10 11 -10 16 0 6 5 7 10 4 6 -3 10
-11 10 -16z m-3491 -16 c0 -25 -1 -26 -9 -8 -12 27 -12 35 0 35 6 0 10 -12 9
-27z m2868 11 c-3 -3 -12 -4 -19 -1 -8 3 -5 6 6 6 11 1 17 -2 13 -5z m733 -44
c0 -5 -4 -10 -9 -10 -6 0 -13 5 -16 10 -3 6 1 10 9 10 9 0 16 -4 16 -10z
m-113 -44 c-3 -8 -1 -17 6 -20 7 -2 4 -5 -5 -5 -12 -1 -18 6 -18 19 0 11 5 20
11 20 6 0 9 -6 6 -14z m100 -13 c-4 -31 -19 -40 -36 -20 -15 19 -3 47 20 47
16 0 19 -6 16 -27z m-2956 -296 c-1 -12 -15 -9 -19 4 -3 6 1 10 8 8 6 -3 11
-8 11 -12z m2864 -137 c-3 -5 -11 -10 -16 -10 -6 0 -7 5 -4 10 3 6 11 10 16
10 6 0 7 -4 4 -10z"/>
<path d="M1407 2603 c-4 -3 -7 -11 -7 -17 0 -6 5 -5 12 2 6 6 9 14 7 17 -3 3
-9 2 -12 -2z"/>
<path d="M730 2530 c0 -5 5 -10 10 -10 6 0 10 5 10 10 0 6 -4 10 -10 10 -5 0
-10 -4 -10 -10z"/>
<path d="M2606 2512 c-36 -16 4 -26 114 -29 102 -4 104 -3 75 12 -34 19 -160
29 -189 17z"/>
<path d="M5070 2514 c0 -10 83 -104 88 -99 3 2 -16 27 -41 54 -26 28 -47 48
-47 45z"/>
<path d="M3694 2485 c-5 -12 1 -23 17 -36 28 -21 153 -53 189 -47 32 4 33 32
1 36 -14 2 -34 10 -45 17 -19 12 -42 20 -133 42 -16 4 -25 0 -29 -12z"/>
<path d="M3950 2430 c0 -5 5 -10 10 -10 6 0 10 5 10 10 0 6 -4 10 -10 10 -5 0
-10 -4 -10 -10z"/>
<path d="M3910 2379 c0 -10 30 -20 41 -13 18 11 9 24 -16 22 -14 -1 -25 -5
-25 -9z"/>
<path d="M4331 2354 c0 -11 3 -14 6 -6 3 7 2 16 -1 19 -3 4 -6 -2 -5 -13z"/>
<path d="M2310 2260 c-13 -8 -12 -10 3 -10 9 0 17 5 17 10 0 12 -1 12 -20 0z"/>
<path d="M2234 2215 c-10 -8 -14 -15 -8 -15 5 0 19 7 30 15 10 8 14 15 8 15
-5 0 -19 -7 -30 -15z"/>
<path d="M4660 2203 c0 -4 5 -15 10 -23 8 -13 10 -13 10 2 0 9 -4 20 -10 23
-5 3 -10 3 -10 -2z"/>
<path d="M2178 2193 c-10 -2 -18 -9 -18 -14 0 -6 10 -5 23 2 37 20 36 23 -5
12z"/>
<path d="M3027 2183 c-4 -3 -7 -11 -7 -17 0 -6 5 -5 12 2 6 6 9 14 7 17 -3 3
-9 2 -12 -2z"/>
<path d="M2108 2163 c6 -2 18 -2 25 0 6 3 1 5 -13 5 -14 0 -19 -2 -12 -5z"/>
<path d="M2420 2149 c0 -5 5 -7 10 -4 6 3 10 8 10 11 0 2 -4 4 -10 4 -5 0 -10
-5 -10 -11z"/>
<path d="M3262 2140 c0 -14 2 -19 5 -12 2 6 2 18 0 25 -3 6 -5 1 -5 -13z"/>
<path d="M4804 2115 c-9 -36 1 -54 40 -70 19 -8 37 -19 41 -25 11 -17 24 -11
22 10 -1 11 -4 20 -8 20 -4 0 -19 20 -33 45 -30 50 -52 58 -62 20z"/>
<path d="M2995 2070 c4 -6 11 -8 16 -5 14 9 11 15 -7 15 -8 0 -12 -5 -9 -10z"/>
<path d="M4940 1966 c0 -2 8 -10 18 -17 15 -13 16 -12 3 4 -13 16 -21 21 -21
13z"/>
<path d="M5037 1845 c19 -26 42 -39 52 -30 6 6 -48 54 -62 55 -4 0 0 -11 10
-25z"/>
<path d="M2551 1814 c0 -11 3 -14 6 -6 3 7 2 16 -1 19 -3 4 -6 -2 -5 -13z"/>
<path d="M5827 1676 c15 -19 35 -37 43 -41 8 -3 -3 12 -25 34 -48 50 -57 53
-18 7z"/>
<path d="M4921 1676 c-11 -5 -21 -13 -21 -18 0 -10 -25 -38 -34 -38 -3 0 -6 7
-6 16 0 8 -4 13 -9 10 -5 -4 -8 -25 -6 -49 2 -23 4 -46 5 -52 1 -26 21 -36 80
-41 35 -3 73 -1 84 4 41 19 102 41 159 58 41 13 57 23 57 35 0 18 -49 59 -70
59 -7 0 -19 8 -26 18 -7 9 -14 12 -14 5 0 -7 -17 -10 -50 -9 -28 2 -53 -1 -57
-7 -3 -5 -9 -3 -14 4 -10 16 -48 19 -78 5z"/>
<path d="M5240 1614 c0 -25 8 -28 59 -18 34 7 42 24 11 24 -11 0 -20 4 -20 9
0 5 -11 9 -25 9 -20 0 -25 -6 -25 -24z"/>
<path d="M5915 1580 c21 -22 41 -40 43 -40 9 0 -63 78 -73 79 -5 1 9 -17 30
-39z"/>
<path d="M5970 1522 c0 -5 12 -19 27 -33 l26 -24 -23 33 c-25 33 -30 38 -30
24z"/>
<path d="M5190 1460 c0 -5 5 -10 10 -10 6 0 10 5 10 10 0 6 -4 10 -10 10 -5 0
-10 -4 -10 -10z"/>
<path d="M5565 700 c-3 -5 1 -10 9 -10 8 0 18 5 21 10 3 6 -1 10 -9 10 -8 0
-18 -4 -21 -10z"/>
<path d="M5670 640 c0 -5 7 -7 15 -4 8 4 15 8 15 10 0 2 -7 4 -15 4 -8 0 -15
-4 -15 -10z"/>
<path d="M5595 560 c-3 -5 -2 -10 4 -10 5 0 13 5 16 10 3 6 2 10 -4 10 -5 0
-13 -4 -16 -10z"/>
<path d="M5550 510 c0 -5 5 -10 10 -10 6 0 10 5 10 10 0 6 -4 10 -10 10 -5 0
-10 -4 -10 -10z"/>
<path d="M5740 489 c-19 -4 -47 -5 -61 -2 -15 3 -30 0 -33 -6 -4 -6 -12 -11
-17 -11 -6 0 -7 6 -3 13 5 7 -2 5 -16 -4 -28 -18 -25 -35 3 -31 15 3 17 -1 12
-17 -6 -19 -3 -20 27 -14 18 3 37 11 41 17 6 8 10 7 14 -1 3 -8 15 -11 29 -8
13 3 35 7 49 10 14 3 25 12 25 20 0 8 7 15 16 15 9 0 14 6 12 12 -5 15 -49 18
-98 7z m-70 -49 c0 -5 -4 -10 -10 -10 -5 0 -10 5 -10 10 0 6 5 10 10 10 6 0
10 -4 10 -10z"/>
<path d="M6043 243 c4 -6 3 -14 -2 -17 -5 -4 -13 -2 -16 4 -5 8 -15 6 -32 -5
-19 -13 -31 -14 -54 -6 -39 13 -64 3 -118 -48 -24 -22 -47 -41 -52 -41 -15 0
-53 -24 -67 -43 -7 -9 -17 -15 -22 -12 -4 3 -13 -2 -20 -10 -7 -8 -19 -15 -27
-15 -7 0 -16 -7 -19 -15 -4 -8 -10 -13 -14 -10 -4 3 -21 -2 -36 -10 -27 -14
-13 -15 165 -15 163 0 192 2 177 13 -17 12 -17 14 0 28 9 7 19 13 21 12 8 -7
23 -2 23 8 0 14 25 39 39 39 6 0 11 8 11 18 0 20 66 65 83 57 7 -4 4 0 -6 8
-9 8 -15 21 -12 29 3 8 -2 21 -11 29 -10 8 -15 9 -11 2z"/>
</g>
</svg>
